{"title":"The Ghost and the Darkness(1996)MPEG-4[DaScubaDude]","uid":14751281,"size":1236393673,"categoryP":"video","categoryS":"movies","magnet":"?xt=urn:btih:d7588e2f39f568b627a6ececd60cd429c3565120&amp;dn=The+Ghost+and+the+Darkness%281996%29MPEG-4%5BDaScubaDude%5D&amp;tr=udp%3A%2F%2Ftracker.leechers-paradise.org%3A6969&amp;tr=udp%3A%2F%2Fzer0day.ch%3A1337&amp;tr=udp%3A%2F%2Fopen.demonii.com%3A1337&amp;tr=udp%3A%2F%2Ftracker.coppersurfer.tk%3A6969&amp;tr=udp%3A%2F%2Fexodus.desync.com%3A6969","seeders":1,"leechers":0,"uploader":"dascuba","files":1,"time":1464763081,"description":"The Ghost and the Darkness (1996)\r\nR | 1h 50min | Adventure, Drama, Horror | 11 October 1996 (USA)\r\nA bridge engineer and an experienced old hunter begin a hunt for two lions after they start attacking local construction workers.\r\nDirector: Stephen Hopkins\r\nWriter: William Goldman\r\nStars: Michael Douglas, Val Kilmer, Tom Wilkinson \r\n\r\nGeneral\r\nComplete name                            : GhostDarknessUNDEFINED_Title1.mp4\r\nFormat                                   : MPEG-4\r\nFormat profile                           : Base Media\r\nCodec ID                                 : isom (isom/iso2/avc1/mp41)\r\nFile size                                : 1.15 GiB\r\nDuration                                 : 1h 49mn\r\nOverall bit rate                         : 1 501 Kbps\r\nMovie name                               : UNDEFINED\r\nGenre                                    : Adventure\r\nWriting application                      : Lavf54.6.100\r\n\r\nVideo\r\nID                                       : 1\r\nFormat                                   : AVC\r\nFormat/Info                              : Advanced Video Codec\r\nFormat profile                           :   \r\nFormat settings, CABAC                   : No\r\nFormat settings, ReFrames                : 6 frames\r\nCodec ID                                 : avc1\r\nCodec ID/Info                            : Advanced Video Coding\r\nDuration                                 : 1h 49mn\r\nBit rate                                 : 1 209 Kbps\r\nWidth                                    : 720 pixels\r\nHeight                                   : 540 pixels\r\nDisplay aspect ratio                     : 4:3\r\nFrame rate mode                          : Constant\r\nFrame rate                               : 29.970 (30000/1001) fps\r\nColor space                              : YUV\r\nChroma subsampling                       : 4:2:0\r\nBit depth                                : 8 bits\r\nScan type                                : Progressive\r\nBits/(Pixel*Frame)                       : 0.104\r\nStream size                              : 950 MiB (81%)\r\n\r\nAudio\r\nID                                       : 2\r\nFormat                                   : AAC\r\nFormat/Info                              : Advanced Audio Codec\r\nFormat profile                           : LC\r\nCodec ID                                 : 40\r\nDuration                                 : 1h 49mn\r\nBit rate mode                            : Constant\r\nBit rate                                 : 288 Kbps\r\nChannel(s)                               : 2 channels\r\nChannel(s)_Original                      : 6 channels\r\nChannel positions                        : Front: L C R, Side: L R, LFE\r\nSampling rate                            : 44.1 KHz\r\nFrame rate                               : 43.066 fps (1024 spf)\r\nCompression mode                         : Lossy\r\nStream size                              : 224 MiB (19%)\r\nDefault                                  : Yes\r\nAlternate group                          : 1","torrent":{"xt":"urn:btih:d7588e2f39f568b627a6ececd60cd429c3565120","amp;dn":"The+Ghost+and+the+Darkness%281996%29MPEG-4%5BDaScubaDude%5D","amp;tr":["udp%3A%2F%2Ftracker.leechers-paradise.org%3A6969","udp%3A%2F%2Fzer0day.ch%3A1337","udp%3A%2F%2Fopen.demonii.com%3A1337","udp%3A%2F%2Ftracker.coppersurfer.tk%3A6969","udp%3A%2F%2Fexodus.desync.com%3A6969"],"infoHash":"d7588e2f39f568b627a6ececd60cd429c3565120","infoHashBuffer":{"type":"Buffer","data":[215,88,142,47,57,245,104,182,39,166,236,236,214,12,212,41,195,86,81,32]},"announce":[],"urlList":[]}}